<svg width="21" height="20" viewBox="0 0 21 20" fill="none" xmlns="http://www.w3.org/2000/svg">
<path d="M14.8035 17.6647C13.8882 18.5442 12.8888 18.4053 11.9267 17.9887C10.9086 17.5628 9.97455 17.5443 8.90041 17.9887C7.55539 18.5627 6.84552 18.3961 6.04224 17.6647C1.48413 13.0078 2.15663 5.91615 7.33122 5.65692C8.59217 5.72173 9.47017 6.34202 10.2081 6.39757C11.3102 6.17538 12.3657 5.53657 13.5426 5.61989C14.953 5.73099 16.0178 6.28647 16.7183 7.28635C13.8041 9.01761 14.4953 12.8227 17.1667 13.8874C16.6343 15.2761 15.9431 16.6555 14.7942 17.6739L14.8035 17.6647ZM10.1147 5.60138C9.97455 3.53682 11.6652 1.83333 13.608 1.66669C13.8788 4.05527 11.4223 5.83283 10.1147 5.60138Z" fill="white"/>
</svg>
