<svg width="20" height="20" viewBox="0 0 20 20" fill="none" xmlns="http://www.w3.org/2000/svg">
<path d="M18.1712 8.36794H17.5V8.33335H9.99996V11.6667H14.7095C14.0225 13.6071 12.1762 15 9.99996 15C7.23871 15 4.99996 12.7613 4.99996 10C4.99996 7.23877 7.23871 5.00002 9.99996 5.00002C11.2745 5.00002 12.4341 5.48085 13.317 6.26627L15.6741 3.90919C14.1858 2.5221 12.195 1.66669 9.99996 1.66669C5.39788 1.66669 1.66663 5.39794 1.66663 10C1.66663 14.6021 5.39788 18.3334 9.99996 18.3334C14.602 18.3334 18.3333 14.6021 18.3333 10C18.3333 9.44127 18.2758 8.89585 18.1712 8.36794Z" fill="#FFC107"/>
<path d="M2.62746 6.12127L5.36538 8.12919C6.10621 6.29502 7.90038 5.00002 9.99996 5.00002C11.2745 5.00002 12.4341 5.48085 13.317 6.26627L15.6741 3.90919C14.1858 2.5221 12.195 1.66669 9.99996 1.66669C6.79913 1.66669 4.02329 3.47377 2.62746 6.12127Z" fill="#FF3D00"/>
<path d="M9.99996 18.3334C12.1525 18.3334 14.1083 17.5096 15.587 16.17L13.0079 13.9875C12.1431 14.6452 11.0864 15.0009 9.99996 15C7.83246 15 5.99204 13.6179 5.29871 11.6892L2.58121 13.7829C3.96038 16.4817 6.76121 18.3334 9.99996 18.3334Z" fill="#4CAF50"/>
<path d="M18.1712 8.36794H17.5V8.33335H9.99996V11.6667H14.7095C14.3809 12.5902 13.7889 13.3972 13.0066 13.9879L13.0079 13.9875L15.587 16.17C15.4045 16.3359 18.3333 14.1667 18.3333 10C18.3333 9.44127 18.2758 8.89585 18.1712 8.36794Z" fill="#1976D2"/>
</svg>
